<?xml version="1.0" encoding="UTF-8" standalone="no"?>
<svg
   xmlns:osb="http://www.openswatchbook.org/uri/2009/osb"
   xmlns:dc="http://purl.org/dc/elements/1.1/"
   xmlns:cc="http://creativecommons.org/ns#"
   xmlns:rdf="http://www.w3.org/1999/02/22-rdf-syntax-ns#"
   xmlns:svg="http://www.w3.org/2000/svg"
   xmlns="http://www.w3.org/2000/svg"
   xmlns:sodipodi="http://sodipodi.sourceforge.net/DTD/sodipodi-0.dtd"
   xmlns:inkscape="http://www.inkscape.org/namespaces/inkscape"
   id="svg"
   version="1.1"
   width="400"
   height="400.90909090909093"
   viewBox="0 0 400 400.90909090909093"
   sodipodi:docname="model.svg"
   inkscape:version="0.92.3 (2405546, 2018-03-11)"
   inkscape:export-filename="C:\Users\cn40580\IdeaProjects\qr-generate\src\main\resources\module\model.png"
   inkscape:export-xdpi="864"
   inkscape:export-ydpi="864">
  <metadata
     id="metadata2595">
    <rdf:RDF>
      <cc:Work
         rdf:about="">
        <dc:format>image/svg+xml</dc:format>
        <dc:type
           rdf:resource="http://purl.org/dc/dcmitype/StillImage" />
        <dc:title></dc:title>
      </cc:Work>
    </rdf:RDF>
  </metadata>
  <defs
     id="defs2593">
    <linearGradient
       id="linearGradient4630"
       osb:paint="solid">
      <stop
         style="stop-color:#ffff00;stop-opacity:1;"
         offset="0"
         id="stop4628" />
    </linearGradient>
  </defs>
  <sodipodi:namedview
     pagecolor="#ffffff"
     bordercolor="#666666"
     borderopacity="1"
     objecttolerance="10"
     gridtolerance="10"
     guidetolerance="10"
     inkscape:pageopacity="0"
     inkscape:pageshadow="2"
     inkscape:window-width="1858"
     inkscape:window-height="1058"
     id="namedview2591"
     showgrid="false"
     inkscape:zoom="1.4142136"
     inkscape:cx="81.999323"
     inkscape:cy="251.43585"
     inkscape:window-x="54"
     inkscape:window-y="-8"
     inkscape:window-maximized="1"
     inkscape:current-layer="layer4" />
  <g
     inkscape:groupmode="layer"
     id="layer3"
     inkscape:label="Layer 1"
     style="display:inline"
     sodipodi:insensitive="true">
    <rect
       style="display:inline;opacity:1;fill:#ffffff;fill-opacity:1;fill-rule:nonzero;stroke:none;stroke-width:0.37795275;stroke-miterlimit:4;stroke-dasharray:none;stroke-opacity:1;paint-order:fill markers stroke"
       id="rect4874"
       width="403.90625"
       height="404.6875"
       x="-1.5625"
       y="-0.65341336" />
  </g>
  <g
     inkscape:groupmode="layer"
     id="layer4"
     inkscape:label="Layer 2"
     style="display:inline">
    <g
       id="svgg"
       transform="matrix(1.2807886,0,0,1.2618693,-118.61226,-385.94581)">
      <g
         id="layer1"
         inkscape:label="Layer 1"
         transform="matrix(1.4010307,0,0,1.2058855,192.12435,257.28754)"
         style="fill:#1a1a1a">
        <g
           transform="matrix(0.26458333,0,0,0.26458333,46.113093,113.30357)"
           id="svgg-4"
           style="fill:#1a1a1a">
          <path
             style="fill:#1a1a1a;fill-opacity:1;fill-rule:evenodd;stroke:none"
             inkscape:connector-curvature="0"
             id="path1-5"
             d="m 208.83227,-192.19455 c -2.97,0.277 -6.48,0.72 -7.8,0.983 -1.32,0.263 -3.21,0.629 -4.2,0.813 -3.571,0.664 -10.392,2.549 -13,3.592 -0.44,0.176 -2.51,0.98 -4.6,1.787 -4.073,1.571 -6.35,2.597 -11.4,5.134 -5.298,2.661 -7.959,4.199 -14.2,8.208 -2.098,1.348 -3.497,2.337 -8.7,6.149 -2.269,1.663 -8.147,6.452 -10.097,8.227 -1.338,1.218 -1.308,1.214 -11.403,1.466 -14.445,0.361 -23.549996,1.287 -29.599996,3.011 -0.88,0.251 -2.14,0.605 -2.8,0.787 -1.413,0.391 -2.429,0.742 -3.8,1.314 -0.55,0.229 -1.36,0.551 -1.8,0.715 -1.887009,0.701 -6.531009,3.047 -8.072009,4.078 -0.92,0.614 -1.774,1.117 -1.898,1.117 -2.11,0 -13.832,11.946 -16.583,16.9 -0.719,1.294 -0.563,2.259 0.172,1.069 0.462,-0.747 8.131,-6.715 11.73,-9.128 7.515,-5.038 16.079009,-9.085 22.251009,-10.514 8.456996,-1.958 8.978996,-1.991 36.999996,-2.341 32.391,-0.403 45.149,-0.821 97.2,-3.185 14.579,-0.662 25.063,-1.166 33.2,-1.596 4.29,-0.227 11.13,-0.586 15.2,-0.798 4.07,-0.213 10.55,-0.603 14.4,-0.867 21.529,-1.479 35.249,-0.081 47,4.789 11.88,4.924 18.07,10.493 19.795,17.81 l 0.551,2.338 0.675,-1.538 c 4.271,-9.741 2.377,-18.939 -5.518,-26.791 -3.942,-3.92 -4.099,-4.308 -2.901,-7.148 0.784,-1.858 1.641,-7.049 1.397,-8.455 -0.591,-3.398 -2.445,-3.796 -11.999,-2.583 -1.54,0.196 -4.51,0.565 -6.6,0.82 -2.09,0.256 -5.24,0.645 -7,0.865 -5.737,0.717 -9.08,0.854 -10.553,0.429 -1.321,-0.38 -2.904,-0.714 -8.047,-1.697 -0.99,-0.189 -3.15,-0.55 -4.8,-0.801 -1.65,-0.252 -3.36,-0.608 -3.8,-0.791 -0.44,-0.184 -1.52,-0.563 -2.4,-0.842 -0.88,-0.28 -1.771,-0.652 -1.98,-0.827 -0.209,-0.175 -0.706,-0.318 -1.105,-0.318 -0.399,0 -1.038,-0.158 -1.42,-0.351 -0.673,-0.34 -1.486,-0.591 -5.295,-1.634 -0.99,-0.271 -2.113,-0.655 -2.495,-0.854 -0.382,-0.199 -1.136,-0.361 -1.676,-0.361 -0.54,0 -1.081,-0.16 -1.202,-0.356 -0.121,-0.195 -0.806,-0.452 -1.523,-0.571 -0.717,-0.118 -2.069,-0.408 -3.004,-0.644 -4.385,-1.106 -8.26,-1.995 -10.7,-2.453 -1.1,-0.207 -2.9,-0.563 -4,-0.792 -5.526,-1.15 -13.331,-2.329 -21.2,-3.2 -3.4,-0.377 -23.313,-1.58 -25,-1.511 -0.55,0.022 -3.43,0.268 -6.4,0.546 m 13.874,5.051 c 1.345,1.263 1.283,1.644 -1.158,7.13 -0.749,1.684 -1.047,2.372 -2.473,5.7 -0.306,0.715 -1.026,2.34 -1.6,3.612 -0.574,1.271 -1.043,2.391 -1.043,2.488 0,0.097 -0.43,1.127 -0.955,2.288 -0.526,1.162 -1.323,2.93 -1.773,3.93 -0.449,0.999 -1.234,2.021 -1.745,2.27 -1.213,0.592 -13.337,1.182 -42.727,2.078 -6.71,0.205 -13.554,0.499 -15.209,0.654 -4.949,0.464 -7.594,-3.007 -4.491,-5.893 1.153,-1.073 10.694,-7.527 11.126,-7.527 0.138,0 0.728,-0.333 1.312,-0.739 2.612,-1.818 12.257,-6.711 16.762,-8.503 0.495,-0.197 1.395,-0.562 2,-0.812 0.605,-0.249 1.46,-0.59 1.9,-0.757 0.44,-0.167 1.769,-0.682 2.953,-1.146 1.185,-0.464 2.492,-0.843 2.906,-0.843 0.413,0 1.064,-0.158 1.446,-0.351 1.163,-0.587 5.638,-1.789 9.095,-2.443 8.824,-1.669 10.708,-1.885 16.974,-1.948 5.42,-0.054 5.831,-0.005 6.7,0.812 m 20.526,0.732 c 6.743,0.899 12.071,1.81 18.6,3.181 1.1,0.231 2.679,0.534 3.51,0.673 0.83,0.138 1.606,0.408 1.723,0.598 0.118,0.19 0.823,0.346 1.567,0.346 0.744,0 1.452,0.16 1.573,0.356 0.121,0.195 0.806,0.453 1.523,0.571 2.106,0.349 3.648,0.711 4.504,1.058 0.44,0.178 1.61,0.55 2.6,0.827 2.749,0.769 6.906,2.055 7.8,2.414 0.44,0.177 1.5,0.558 2.356,0.848 7.636,2.584 2.158,9.813 -8.756,11.555 -9.693,1.547 -32.341,3.247 -50.913,3.821 -11.194,0.347 -11.15,0.392 -7.446,-7.762 0.527,-1.161 0.959,-2.188 0.959,-2.282 0,-0.093 0.52,-1.303 1.155,-2.688 0.635,-1.385 1.426,-3.148 1.758,-3.918 0.58,-1.347 1.683,-3.852 2.994,-6.8 0.343,-0.77 1.089,-1.913 1.658,-2.54 l 1.035,-1.14 4.4,0.241 c 2.42,0.133 5.75,0.422 7.4,0.641" />
          <path
             style="fill:#1a1a1a;fill-rule:evenodd;stroke:none"
             inkscape:connector-curvature="0"
             id="path4-5"
             d="m 244.9251,-267.84467 c -3.47733,1.15732 -5.16613,2.83467 -7.66716,7.61354 -3.06188,5.85064 -4.20505,6.27631 -17.07675,6.36355 -7.30785,0.0485 -11.33154,0.25593 -14.35037,0.73817 -8.11052,1.29437 -9.40258,1.43903 -10.79221,1.20133 -3.45302,-0.59087 -5.64664,-2.16821 -8.17456,-5.87836 -5.16488,-7.57756 -10.00774,-7.53912 -23.72428,0.18692 -7.6533,4.31037 -9.57186,8.26331 -7.21555,14.86667 2.36444,6.62631 1.29616,9.42253 -6.65247,17.41497 -5.64709,5.67796 -7.37214,7.76656 -14.69611,17.79485 -2.65273,3.63187 -6.90887,5.41643 -10.61841,4.45126 -9.5068,-2.47537 -12.81987,0.5119 -18.01263,16.23806 -2.75611,8.34964 -1.1669,13.0021 5.54177,16.21423 4.61892,2.2121 7.3349,5.92899 7.36266,10.07388 0.0138,2.13196 -0.93567,1.99232 8.39944,1.23177 7.13927,-0.58085 6.40131,0.0251 7.19557,-5.91035 4.63965,-34.69486 33.00409,-64.87159 67.69299,-72.02017 5.12004,-1.05433 6.76651,-1.28835 12.05383,-1.7068 11.91393,-0.94484 24.11126,0.85548 36.17158,5.33877 1.21305,0.45189 2.7469,1.01963 3.40853,1.2632 0.66166,0.24356 3.00917,1.35687 5.2167,2.4741 18.23324,9.22905 34.24344,26.66617 41.26202,44.93956 1.86253,4.84964 1.95346,4.98702 3.28943,4.97807 0.67698,-0.004 1.98506,0.15171 2.90939,0.34752 0.92333,0.19582 2.76081,0.55852 4.08249,0.80567 1.32169,0.24714 3.15028,0.6269 4.06376,0.84579 2.19656,0.52429 3.29781,0.10992 3.95411,-1.48953 0.83438,-2.03663 2.313,-3.58958 5.71787,-6.01045 6.12894,-4.35615 6.85379,-8.11209 3.21544,-16.65991 -4.78441,-11.23921 -6.56343,-13.62433 -11.20389,-15.01928 -2.32172,-0.69746 -3.05622,-0.62054 -6.99918,0.74091 -7.12069,2.45876 -8.832,1.82221 -16.84232,-6.2593 -5.57279,-5.62178 -10.51535,-9.86776 -15.51062,-13.32437 -6.52641,-4.51638 -7.87563,-7.52941 -6.50549,-14.53075 1.31304,-6.71394 -1.40454,-10.82082 -9.06294,-13.69058 -0.55139,-0.20632 -1.3635,-0.51687 -1.80466,-0.68993 -7.05673,-2.77078 -12.0866,-3.7791 -14.62798,-2.93305 m -97.86767,138.28782 c 0.11519,17.19461 -0.1002,16.23404 3.63761,16.199 3.45686,-0.0322 3.24978,0.70324 3.2861,-11.63629 l 0.0335,-10.98047 1.72149,0.0664 1.72148,0.0664 -0.13357,-1.87715 c -0.1325,-1.86516 -0.1446,-1.87808 -1.73489,-2.06643 l -1.60131,-0.18928 -0.13541,-2.29914 -0.1354,-2.29914 -3.37992,0.0227 -3.37993,0.0227 0.10036,14.97066 m 14.30023,-14.93815 c 4.8e-4,0.07 0.34858,0.83168 0.77435,1.69186 0.94381,1.90672 0.81456,2.16859 -1.07241,2.18022 l -1.47596,0.0102 0.15922,6.89908 c 0.1948,8.47689 -0.017,7.90129 2.90387,7.88173 2.98994,-0.0196 3.08205,0.14536 2.05078,3.69134 -1.44379,4.96278 -1.30801,4.77987 -3.46385,4.66131 l -1.89573,-0.10328 0.013,1.98597 0.013,1.98694 4.00069,0.0902 c 4.6108,0.10408 5.66956,-0.0849 5.93605,-1.05779 0.72228,-2.6469 2.72165,-9.31344 3.07047,-10.2378 0.40187,-1.06572 0.53354,-1.1166 2.66725,-1.0179 l 2.24473,0.103 0.15065,5.91613 c 0.10732,4.22037 0.29095,5.96218 0.64075,6.07985 0.26961,0.0912 2.9734,0.20007 6.00877,0.24373 l 5.51864,0.0781 -0.13141,-1.99918 -0.13139,-1.99915 -2.51474,-0.1022 -2.51475,-0.10309 0.0866,-4.08068 0.0867,-4.08167 2.09913,-0.13508 2.09915,-0.13506 -0.0489,-7.37884 -0.0489,-7.37884 -1.37597,0.01 c -1.81396,0.0121 -2.0665,-0.51416 -1.07096,-2.22887 0.4528,-0.77806 0.82201,-1.49454 0.82135,-1.59255 -4.6e-4,-0.097 -1.60015,-0.16627 -3.55511,-0.15317 l -3.55491,0.0238 -0.64573,1.38536 c -1.11304,2.3875 -1.56741,2.63055 -4.94739,2.6462 -3.55297,0.0167 -3.62319,-0.017 -4.88926,-2.26128 l -0.95537,-1.69366 -3.52691,0.0236 c -1.93896,0.0128 -3.52554,0.0816 -3.52506,0.15261 m 44.92185,-0.17302 c -0.26128,0.10875 -0.37701,0.44954 -0.25693,0.75674 0.12005,0.3072 -0.18047,1.12624 -0.66684,1.81951 l -0.88557,1.26196 -4.56286,-0.11441 -4.56187,-0.11441 0.13009,1.80317 0.13007,1.80216 3.00127,0.17989 c 3.46547,0.20779 3.44609,0.15192 1.23333,3.62583 -1.29837,2.03974 -1.5899,2.85671 -1.57936,4.43068 l 0.0128,1.92896 8.10054,0.0547 8.10055,0.0538 0.0152,2.19995 0.0153,2.19994 -10.31777,0.0691 -10.31776,0.0691 0.13005,1.79916 0.13005,1.79917 10.20112,0.13166 10.20111,0.13166 0.13607,2.69615 c 0.15792,3.12301 0.31064,3.22898 4.31917,2.99611 l 2.38213,-0.13795 0.18123,-2.80128 0.18125,-2.80128 9.89976,-0.0663 9.90078,-0.0663 -0.0135,-1.89995 -0.0125,-1.89996 -9.99977,0.067 -9.99976,0.067 -0.0164,-2.42194 -0.0164,-2.42295 8.41863,0.0666 8.41963,0.0656 -0.13107,-1.79916 -0.13005,-1.79917 -8.20116,-0.14502 -8.20115,-0.14501 -0.13506,-2.09914 -0.13508,-2.09914 -3.49592,0.0234 -3.49592,0.0234 0.031,2.09984 0.0311,2.09984 -3.97113,0.14161 c -5.78674,0.20677 -5.78674,0.20677 -2.51485,-4.29825 l 1.3139,-1.80885 15.1651,-0.18561 15.1651,-0.18561 0.10984,-1.81677 0.10983,-1.81678 -13.8217,0.0926 c -7.60182,0.0512 -13.82245,-0.0214 -13.82338,-0.16037 -0.001,-0.139 0.36727,-0.85849 0.81732,-1.59752 0.45105,-0.74004 0.70477,-1.52876 0.56527,-1.75183 -0.25169,-0.40031 -6.35539,-0.48543 -7.28383,-0.10124 m 42.27746,-0.22025 c 0.001,0.176 0.1543,0.48998 0.33969,0.69774 0.40404,0.4513 2.09889,5.05205 2.10329,5.70704 0.002,0.28799 -0.79191,0.46432 -2.12988,0.47328 -2.26395,0.0156 -2.87225,0.27225 -2.3115,0.97851 0.1906,0.23873 0.93816,1.96075 1.66267,3.82594 1.73193,4.46149 1.65045,4.38904 4.89237,4.36732 3.19993,-0.0217 3.16054,0.0689 1.67948,-3.81334 -1.82407,-4.78188 -1.86575,-4.5856 0.96818,-4.60459 2.81793,-0.0186 2.73614,0.16067 1.46851,-3.21191 -2.00884,-5.34266 -1.39611,-4.78875 -5.26502,-4.76284 -1.87597,0.0124 -3.40896,0.16685 -3.40779,0.34285 m 14.62587,0.52801 c 0.29874,1.15503 -0.56725,1.60684 -2.03294,1.06065 -1.20101,-0.44696 -1.50577,0.0401 -1.29612,2.07473 0.0995,0.97335 0.35315,1.36466 0.93771,1.44675 2.52345,0.3581 2.65608,0.45121 2.53601,1.78505 -0.12749,1.41989 -2.13514,2.07535 -3.33776,1.09039 -0.75617,-0.61895 -1.07569,0.20021 -0.89074,2.28202 0.11571,1.29925 0.29447,1.56106 1.13821,1.66841 1.74652,0.22131 1.67943,0.65476 -0.54071,3.4787 -2.27169,2.88928 -2.39322,3.40712 -0.80026,3.39644 l 0.96598,-0.006 0.14952,5.89913 0.15053,5.89911 17.50031,-0.0133 17.50031,-0.0133 -0.0109,-1.59897 -0.0109,-1.59896 -13.90038,-0.0119 -13.9004,-0.0119 -0.14285,-4.30614 -0.14187,-4.30714 9.51351,0.0446 9.51451,0.0436 0.007,0.99997 0.007,0.99998 -7.59983,0.0511 c -4.17991,0.0282 -7.87042,-0.0375 -8.20116,-0.14501 -0.46804,-0.15287 -0.6255,0.22519 -0.71059,1.70479 l -0.10931,1.90078 11.62174,-0.0779 11.62175,-0.0779 -0.0185,-2.79995 -0.0185,-2.79993 1.19998,-0.008 c 1.54196,-0.0106 1.51667,-0.20417 -0.43661,-3.37216 -1.83093,-2.96879 -1.77564,-3.52317 0.33154,-3.3543 l 1.46082,0.11723 -0.012,-1.79997 -0.012,-1.79996 -2.52376,-0.10304 -2.52373,-0.10205 0.11307,-1.48179 c 0.1149,-1.50781 1.52883,-1.97129 3.91449,-1.28325 0.46391,0.13288 0.62629,-0.25721 0.70958,-1.7068 l 0.1084,-1.88077 -2.30574,-0.10454 c -2.0857,-0.096 -2.3274,-0.20041 -2.54546,-1.10397 -0.23043,-0.95946 -0.37572,-1.0015 -3.7554,-1.09085 -3.29765,-0.0869 -3.50037,-0.0456 -3.26961,0.66492 0.47378,1.45885 -0.55359,1.70474 -6.82023,1.62973 l -5.94662,-0.0711 -0.13437,-1.09912 -0.13336,-1.09914 -3.58093,0.0238 c -3.56591,0.0238 -3.57988,0.0278 -3.33758,0.96837 m -121.98067,7.77145 c 0.01,2.14498 -0.21318,6.69158 -0.49632,10.10355 -0.79492,9.56655 -0.86081,8.98698 1.03297,9.09729 2.45402,0.14355 2.56564,-0.0642 2.98589,-5.55014 0.743,-9.70419 1.02288,-13.00813 1.29464,-15.28301 l 0.27458,-2.30189 -2.55494,0.0172 -2.55495,0.0172 0.0177,3.89997 m 141.72375,-2.89961 c 0.30328,0.18897 0.48059,0.8328 0.40999,1.49029 l -0.12424,1.15786 -6.49912,0.15355 -6.49911,0.15354 -0.009,-1.34296 c -0.005,-0.73899 0.11018,-1.46477 0.25621,-1.61176 0.38738,-0.3936 11.83662,-0.39431 12.46527,-5.3e-4 m -100.95743,2.95948 c 0.44564,1.13903 0.30111,5.98711 -0.19353,6.48844 -0.50261,0.50938 -13.23692,0.80371 -14.48509,0.33405 -0.65667,-0.24661 -1.01941,-6.47431 -0.4135,-7.08738 0.63272,-0.64126 14.8357,-0.39241 15.09212,0.26489 m 102.82921,4.46413 c 1.45975,2.19528 1.4278,2.2045 -7.93898,2.26726 -9.34079,0.0626 -9.49508,0.0205 -7.59793,-2.05315 l 1.00863,-1.10278 6.93785,-0.0465 c 6.93284,-0.0465 6.93785,-0.0455 7.59043,0.93516 m -34.90618,7.25304 c 0.003,0.44199 -0.79405,2.83139 -1.77048,5.30798 -2.15835,5.47659 -2.14911,5.51354 1.35381,5.49006 3.52093,-0.0236 3.62027,-0.12226 5.79467,-5.74095 2.43294,-6.28644 2.54543,-5.91519 -1.78348,-5.88619 -3.33992,0.0226 -3.59952,0.0821 -3.59452,0.8291 m -141.81839,16.08954 c -0.41422,0.26678 -0.25971,1.08777 0.74668,3.97809 1.13385,3.25847 1.22893,3.86585 0.89856,5.754112 -0.43724,2.50198 -0.34581,2.71538 1.16116,2.70528 1.38697,-0.01 1.4979,-0.16804 1.987,-2.84238 0.35302,-1.937412 0.88751,-2.912012 4.30546,-7.856022 0.68834,-0.99563 0.83295,-1.50262 0.51786,-1.81351 -0.82649,-0.81549 -2.36777,0.0428 -3.72619,2.07501 -1.58712,2.3727 -2.73972,2.1404 -2.75778,-0.55553 -0.009,-1.33397 -1.92892,-2.22013 -3.13275,-1.44505 m 16.00855,-0.1212 c -0.62724,0.41421 -2.13104,9.106482 -1.77434,10.254122 1.00876,3.24431 7.49299,3.10686 9.11793,-0.1921 0.97375,-1.978572 1.99726,-9.667602 1.34049,-10.077222 -1.85478,-1.15659 -2.30299,-0.44157 -3.33047,5.31144 -1.08912,6.106442 -4.15005,7.170972 -3.60269,1.25317 0.61174,-6.60824 0.27019,-7.88399 -1.75092,-6.54941 m 15.95115,0.11912 c -0.39775,0.48567 -2.00156,9.025612 -2.11461,11.258422 -0.0733,1.44453 8.02138,1.3723 8.56068,-0.0774 0.56683,-1.51882 0.20906,-1.78143 -2.39987,-1.76395 -3.76593,0.0249 -3.7884,-1.837672 -0.0239,-2.075892 2.14914,-0.1364 2.19197,-0.16269 2.30641,-1.43949 l 0.11729,-1.30081 -2.05195,0.0134 c -2.00297,0.0131 -2.04914,-0.0133 -1.93334,-1.08708 0.11587,-1.06579 0.2056,-1.10539 2.81578,-1.23689 2.80911,-0.14182 4.25385,-1.52953 2.64006,-2.53674 -0.951,-0.59265 -7.39279,-0.39248 -7.91653,0.24604 m 16.12599,-0.0551 c -1.99707,0.8914 -2.83892,2.85609 -3.52599,8.2208 -0.56827,4.439922 7.07989,5.930712 8.95289,1.745062 1.06606,-2.382192 -1.1473,-3.324382 -2.80105,-1.192252 -2.35671,3.036852 -3.71567,-0.38512 -2.1534,-5.4237 0.58243,-1.87994 3.48803,-1.2014 3.30024,0.7699 -0.1495,1.56704 2.13979,1.75171 2.82159,0.22811 1.64246,-3.67009 -2.29804,-6.26775 -6.59428,-4.34792 m 14.13541,-0.43472 c -0.38429,0.10658 -0.7003,0.4057 -0.70256,0.66472 -0.002,0.25902 -0.41856,2.90388 -0.92464,5.87732 -0.98145,5.758722 -0.92587,6.142352 0.86172,5.925372 0.98122,-0.11857 1.19554,-0.37101 1.47636,-1.74092 0.50162,-2.446432 0.79223,-2.805382 2.2862,-2.815392 l 1.35596,-0.01 -0.1214,2.326872 -0.12042,2.32786 1.50711,-0.1371 1.50613,-0.1361 0.72084,-4.204922 c 1.06827,-6.23129 1.06924,-8.17635 0.003,-8.32121 -1.1841,-0.16107 -2.14367,0.95139 -2.13346,2.47535 0.0128,1.94295 -0.99,3.13771 -2.51797,2.99895 -1.21775,-0.10985 -1.25718,-0.17159 -1.11251,-1.71459 0.35468,-3.78046 0.14328,-4.13806 -2.08462,-3.51712 m 15.9997,-0.10016 c -0.38433,0.10257 -0.70035,0.3987 -0.70261,0.65772 -0.002,0.25903 -0.41556,2.90384 -0.91964,5.87729 -1.10531,6.525552 -1.39977,6.009512 3.41612,5.977252 5.60887,-0.0371 7.33027,-2.67117 1.89066,-2.89274 -3.69008,-0.15028 -3.78973,-1.589642 -0.13287,-1.919152 2.36663,-0.21286 2.40049,-0.23409 2.5149,-1.51688 l 0.11729,-1.30081 -2.00195,0.0131 c -2.21295,0.0153 -2.70449,-0.36188 -2.06363,-1.57821 0.36042,-0.68443 0.82756,-0.81356 3.00452,-0.82814 2.62194,-0.0175 3.70275,-0.94483 2.79201,-2.39576 -0.25777,-0.41229 -6.45739,-0.48575 -7.91481,-0.0939 m 15.66293,0.53407 c -3.05708,2.08752 -4.37084,10.187512 -1.86594,11.505762 2.51893,1.32714 6.85339,0.0359 7.82357,-2.32947 1.03509,-2.525992 0.80033,-2.936442 -1.67461,-2.919862 -1.93296,0.0127 -2.1993,0.11171 -2.19458,0.81473 0.003,0.43999 0.18535,0.79877 0.40534,0.79731 0.74599,-0.005 0.41266,1.142262 -0.40957,1.408772 -1.9957,0.64838 -2.67986,-3.849142 -0.98857,-6.499522 1.00249,-1.57175 2.95777,-0.93984 2.9705,0.96012 0.007,1.13498 2.5462,1.36496 2.95886,0.26717 1.45413,-3.86482 -3.27906,-6.56317 -7.025,-4.00501 m 15.72485,-0.52438 c -0.51084,0.62345 -0.82156,1.41254 -2.87609,7.31044 -1.8485,5.304512 -1.83937,5.025442 -0.17741,5.014302 1.43297,-0.01 2.06564,-0.50985 2.29889,-1.81544 0.2593,-1.448772 2.86847,-1.13325 3.13861,0.37898 0.18807,1.05377 0.39613,1.21237 1.72284,1.31349 l 1.5098,0.11488 -0.15338,-6.324122 -0.15237,-6.32411 -2.43773,-0.10067 c -1.65849,-0.0689 -2.5766,0.0683 -2.87316,0.43225 m 13.5491,-0.0308 c -0.39776,0.48567 -2.00158,9.02561 -2.11462,11.258432 -0.0335,0.65624 0.21035,0.79861 1.35932,0.79091 l 1.39998,-0.01 0.55955,-2.903812 c 0.30831,-1.59711 0.66155,-2.9045 0.78654,-2.90534 0.125,-0.001 0.68274,1.30046 1.24041,2.89175 0.99202,2.833422 1.04343,2.896072 2.48019,3.005452 1.6659,0.12785 1.65699,0.1409 2.31367,-3.937592 1.24131,-7.72148 1.27089,-8.0807 0.69246,-8.44083 -1.65194,-1.03096 -2.44086,-0.12164 -2.94333,3.39279 -0.35442,2.47544 -0.65222,2.35844 -1.75269,-0.69526 -0.50846,-1.40963 -1.19489,-2.66506 -1.52573,-2.78984 -1.01357,-0.38122 -2.01468,-0.24352 -2.49576,0.34272 m 17.72596,-0.0657 c -1.76775,0.78885 -2.54994,2.25612 -3.16733,5.93335 -0.84043,5.012732 -0.1249,6.279972 3.53001,6.255492 3.6399,-0.0242 5.04181,-1.08881 5.71405,-4.338392 l 0.26929,-1.30183 -2.20895,0.0153 c -2.42395,0.0164 -3.06774,0.49757 -2.08956,1.56504 0.72329,0.78817 0.21704,1.647582 -0.97493,1.655562 -1.68797,0.0114 -1.79681,-5.338072 -0.144,-7.014182 1.25749,-1.27446 3.3057,-0.0561 2.68374,1.59505 -0.2073,0.55239 0.002,0.63599 1.29751,0.52032 1.25829,-0.11143 1.6138,-0.33582 1.91,-1.20283 1.10535,-3.23248 -2.93936,-5.41642 -6.81983,-3.68238 m 23.76026,0.10777 c -1.92744,1.13494 -3.09081,4.51781 -3.06143,8.90271 0.0274,4.033912 7.03303,4.457972 9.02287,0.545562 0.88041,-1.731932 -1.47374,-3.090192 -2.50877,-1.447222 -2.11753,3.359272 -4.0159,1.07294 -2.89945,-3.49166 0.75729,-3.09314 3.53114,-3.72274 3.55069,-0.8048 0.008,1.25797 0.11732,1.39125 1.1293,1.38446 1.55596,-0.0106 2.07542,-0.69093 2.06196,-2.69987 -0.0209,-3.03093 -3.99413,-4.33333 -7.29517,-2.38918 m 15.47771,-0.2427 c -1.74677,1.08372 -2.18816,1.77369 -2.78785,4.35977 -1.37236,5.920342 -0.49525,7.725492 3.73766,7.697132 4.21291,-0.0283 6.08709,-2.843852 6.06408,-9.111832 -0.013,-3.42799 -3.7245,-4.98715 -7.01389,-2.94507 m 14.25134,-0.29649 c -0.26087,0.31875 -0.83821,2.80667 -1.28299,5.52871 -1.12296,6.875682 -1.14613,6.551832 0.48483,6.540902 1.41697,-0.01 2.37971,-1.99398 2.38512,-4.916092 0.003,-1.25504 0.65745,-1.13043 0.99831,0.19132 0.66733,2.583592 2.15768,2.781612 3.71838,0.49209 1.20816,-1.77212 1.90398,-2.0998 1.53918,-0.72532 -0.13168,0.4959 -0.34955,1.85938 -0.48471,3.031312 l -0.24574,2.1287 1.54011,-0.13732 1.53911,-0.13832 0.72551,-4.404962 c 1.18194,-7.17608 1.12436,-8.00771 -0.55759,-7.99644 -1.33997,0.009 -2.85831,1.60518 -4.78141,5.02915 -0.46546,0.82914 -0.73196,0.45691 -1.74947,-2.45134 -0.94105,-2.69075 -2.62248,-3.6455 -3.82864,-2.17239 m -10.49665,4.11642 c 0.30512,3.45003 -1.22138,6.218322 -3.10633,5.63393 -1.21054,-0.37489 -0.87611,-5.23725 0.47566,-6.91835 0.9382,-1.1663 2.48028,-0.41362 2.63067,1.28442 m -71.71578,-0.47352 c 0.5792,0.92413 -0.1994,3.97341 -1.01638,3.97889 -0.90098,0.006 -1.03376,-1.1551 -0.35702,-3.13769 0.44429,-1.302 0.9064,-1.5851 1.3734,-0.8412 m 40.25983,6.260392 c -0.97504,1.19056 -0.36562,2.44451 1.18134,2.43414 1.33298,-0.009 1.39953,-0.0764 1.39059,-1.40935 -0.0107,-1.573962 -1.60282,-2.208312 -2.57193,-1.02479" />
        </g>
      </g>
    </g>
    <text
       xml:space="preserve"
       style="font-style:normal;font-weight:normal;font-size:49.01639175px;line-height:1.25;font-family:sans-serif;letter-spacing:0px;word-spacing:0px;fill:#000000;fill-opacity:1;stroke:none;stroke-width:1.22540987"
       x="8.0859699"
       y="46.487564"
       id="text3154"><tspan
         sodipodi:role="line"
         id="tspan3152"
         x="8.0859699"
         y="46.487564"
         style="font-style:normal;font-variant:normal;font-weight:normal;font-stretch:normal;font-size:50.66666794px;font-family:YouYuan;-inkscape-font-specification:'YouYuan, Normal';font-variant-ligatures:normal;font-variant-caps:normal;font-variant-numeric:normal;font-feature-settings:normal;text-align:start;writing-mode:lr-tb;text-anchor:start;stroke-width:1.22540987">扫码</tspan></text>
    <text
       xml:space="preserve"
       style="font-style:normal;font-weight:normal;font-size:51.25352859px;line-height:1.25;font-family:sans-serif;letter-spacing:0px;word-spacing:0px;fill:#000000;fill-opacity:1;stroke:none;stroke-width:1.28133833"
       x="41.934544"
       y="63.998741"
       id="text3166"><tspan
         sodipodi:role="line"
         id="tspan3164"
         x="65.998741"
         y="39.934544"
         style="font-style:normal;font-variant:normal;font-weight:normal;font-stretch:normal;font-size:50.66666794px;font-family:YouYuan;-inkscape-font-specification:'YouYuan, Normal';font-variant-ligatures:normal;font-variant-caps:normal;font-variant-numeric:normal;font-feature-settings:normal;text-align:start;writing-mode:tb-rl;text-anchor:start;stroke-width:1.28133833">即刻联系车主</tspan></text>
    <text
       xml:space="preserve"
       style="font-style:normal;font-weight:normal;font-size:56.17795944px;line-height:1.25;font-family:sans-serif;letter-spacing:0px;word-spacing:0px;fill:#000000;fill-opacity:1;stroke:none;stroke-width:1.40444899"
       x="114.71249"
       y="61.675297"
       id="text4880"><tspan
         sodipodi:role="line"
         id="tspan4878"
         x="114.71249"
         y="61.675297"
         style="font-style:normal;font-variant:normal;font-weight:normal;font-stretch:normal;font-size:58.66666794px;font-family:YouYuan;-inkscape-font-specification:'YouYuan, Normal';font-variant-ligatures:normal;font-variant-caps:normal;font-variant-numeric:normal;font-feature-settings:normal;text-align:start;writing-mode:lr-tb;text-anchor:start;stroke-width:1.40444899">挪车</tspan></text>
  </g>
  <g
     inkscape:groupmode="layer"
     id="layer5"
     inkscape:label="Layer 3"
     sodipodi:insensitive="true" />
</svg>
